PathFileType	4	(X/Y/Z)	Patient4_TMGait_0pt4_01_left_13.trc.trc
DataRate	CameraRate	NumFrames	NumMarkers	Units	OrigDataRate	OrigDataStartFrame	OrigNumFrames
74.074074074074	74.074074074074	4	33	mm	74.074074074074	71	       141
Frame#	Time	Sacral			L.Shoulder			Chest			R.Shoulder			Neck			R.ASIS			L.ASIS			R.Thigh.Superior			R.Thigh.Lateral			R.Thigh.Inferior			R.Patella			L.Thigh.Superior			L.Thigh.Lateral			L.Thigh.Inferior			L.Patella			L.Shank.Superior			L.Shank.Lateral			L.Shank.Inferior			R.Shank.Superior			R.Shank.Lateral			R.Shank.Inferior			R.Heel			R.Midfoot.Superior			R.Midfoot.Lateral			R.Toe			L.Heel			L.Midfoot.Lateral			L.Midfoot.Superior			L.Toe			L.Elbow			L.Wrist			R.Elbow			R.Wrist			
		X1	Y1	Z1	X2	Y2	Z2	X3	Y3	Z3	X4	Y4	Z4	X5	Y5	Z5	X6	Y6	Z6	X7	Y7	Z7	X8	Y8	Z8	X9	Y9	Z9	X10	Y10	Z10	X11	Y11	Z11	X12	Y12	Z12	X13	Y13	Z13	X14	Y14	Z14	X15	Y15	Z15	X16	Y16	Z16	X17	Y17	Z17	X18	Y18	Z18	X19	Y19	Z19	X20	Y20	Z20	X21	Y21	Z21	X22	Y22	Z22	X23	Y23	Z23	X24	Y24	Z24	X25	Y25	Z25	X26	Y26	Z26	X27	Y27	Z27	X28	Y28	Z28	X29	Y29	Z29	X30	Y30	Z30	X31	Y31	Z31	X32	Y32	Z32	X33	Y33	Z33	

71	16.955000000000	806.743316829471	1004.783742205293	452.960997996458	1013.538917856829	1422.021147212380	267.280074733896	1095.042343316720	1363.103848417210	442.666427653316	994.923145795192	1448.152036262322	602.330585306001	985.708510800530	1494.182331161895	418.603958942183	1027.845284545546	946.265080275613	588.642565431985	1035.446856817272	964.349981267274	312.847483239591	1100.689701268553	767.009641364518	560.613446464706	1053.452834657046	645.442261159344	631.866774522886	1139.150729949855	606.313514742146	550.326930416423	1170.571794276454	523.961422252630	565.367052471048	1047.717503522957	739.928016262361	344.188581985529	941.478029482697	637.908797289128	276.831804998471	1004.680692366749	549.360213360750	343.840097800761	992.473500297397	484.484494489288	353.693093383653	965.110353829296	415.387318314742	344.787292724075	872.286139968947	303.977140063546	292.025746951787	917.682062224354	192.817213341921	368.592243835284	1152.896722489114	434.776806596681	575.386820907918	1099.443364530715	323.403495997644	642.787396578101	1161.710330927541	234.520148841861	587.220954111558	1060.143937440287	50.450432201648	565.372545511714	1226.890687851464	120.791253168254	597.791953583981	1148.124941145024	46.783655459176	635.130060865320	1350.893407041500	80.000057484780	616.063727014964	784.701087742533	38.325667409802	410.360312719271	860.879251803325	35.218650247626	331.553416155086	943.466517127751	96.221857910421	360.589504734382	1072.929738686366	44.087460750949	337.960446752345	1035.904547790929	1071.829666964675	146.840119146812	1223.914983573861	889.437204848391	169.918313307959	873.143425169643	1128.171618971837	725.816122872315	907.909490453034	867.919004487817	729.507197400958	
72	16.968500000000	807.967229623689	1004.079434214951	454.434882485680	1014.153190330770	1421.670629207222	269.213590140324	1095.651619649181	1362.708164190746	444.552646118958	995.289714162544	1447.476156195094	604.210576160265	985.853957339766	1493.604561568548	420.566206961372	1029.003935234391	945.452189834099	590.309686304912	1036.753429000147	963.687294346927	314.448396620285	1100.565925701240	764.778047001410	562.737761678045	1051.110223249884	643.163400703086	632.669791593901	1136.987526649691	603.947207274713	551.613275583246	1166.942711466030	522.060532232736	565.634303929517	1047.065176186552	738.822137391212	345.447442916599	939.614709062260	637.847570354301	277.848121930135	1001.877926784359	548.656556330352	344.612245901769	989.142349650425	483.801501377191	354.339106130029	961.367286701532	415.001611025629	345.324522827601	867.772111713287	304.232313782343	292.460898911087	912.663919521414	192.627524357235	368.719151357354	1150.160352198886	432.699639203530	575.431028968464	1097.125570247165	320.536761468351	641.630339498070	1160.591917689842	232.540760099981	586.063663715398	1060.547279626327	48.500741088069	562.704708296952	1226.863268574462	118.808063336999	596.139847002039	1147.999082055705	44.992974861264	633.013918278751	1350.766315457236	78.154187950805	615.151222472050	779.257774832333	38.294969296881	410.352358665218	855.414262016360	35.213489147287	331.539815431869	937.989502470092	96.146711469554	360.645080146654	1067.438972892870	43.969115677166	337.980111131011	1037.056074595914	1071.358726120880	149.179066921273	1224.966424337247	888.895517514018	172.850431172676	876.175844454668	1126.392967261188	727.978364164307	915.630267541579	866.983681139452	731.989456902963	
73	16.982000000000	809.448820740585	1003.206622343005	456.148618642369	1014.692921480338	1421.315801866015	271.393820649611	1096.294017326264	1362.329526995515	446.645599175855	995.661160931807	1446.678924796747	606.355480723562	985.941915092478	1492.962651279300	422.805382743190	1030.536369533255	944.540758331843	592.053160777627	1038.257190027460	963.007365556652	316.174549567160	1100.975145173111	762.526030965111	564.852947438752	1049.155165093870	640.817527962071	633.265795973739	1135.363578444962	601.636504907152	552.806544820686	1163.643566066049	519.872978659787	565.775593819195	1046.736440248705	737.642306636036	346.645549242255	937.964475975977	637.728899111237	278.980270557169	999.374180488998	547.886629251234	345.434051038431	986.137799490202	482.968630576443	355.071928365345	957.904485159936	414.500965421926	345.949531142195	863.408736480839	304.455390346791	293.000347045434	907.700075820490	192.351441500091	368.898420706432	1147.300051715823	430.282071513242	575.362998858976	1093.902947792742	317.664999869154	640.230107539115	1158.114722036449	230.210597025349	584.763714793330	1058.559532730550	46.863312195188	559.817088384755	1224.733476561247	116.370580234110	594.413606207364	1145.333071477004	43.265384387586	630.821473360202	1348.324821882577	75.270047189008	614.441955414468	773.794665426509	38.162771613987	410.350487041641	849.938795107078	35.150282578424	331.536993353882	932.484876917468	96.052556202340	360.721496684650	1061.952592468048	43.837034681778	337.996649255295	1037.891372072998	1070.922056307969	151.588422022509	1225.456864665400	888.126540786633	175.793042864075	879.396615894348	1124.446144160612	730.398538994655	924.023441277315	866.063883375417	734.922195374898	
74	16.995500000000	811.156899502326	1002.184910539342	458.092849399716	1015.143601640996	1420.953846094273	273.819370775472	1096.973513826795	1361.970480818011	448.941159693241	996.058862065902	1445.766944668850	608.769428810126	985.987488458698	1492.265420945464	425.322174673574	1032.419619817456	943.549136289680	593.866096783119	1039.937172647535	962.326522528359	318.024547610391	1101.911858402330	760.278308321716	566.911066478203	1047.613453750552	638.477071918420	633.679510444821	1134.274663283231	599.412451258051	553.894239292296	1160.718460309978	517.467360373769	565.784582793951	1046.789308122368	736.404622286820	347.814813497055	936.652492025392	637.511722299203	280.258492138241	997.314758685934	547.030836475343	346.371709237869	983.635780345878	481.941898342233	355.940531759457	954.848495021095	413.836468934997	346.717826848446	859.303860786615	304.629676691057	293.676442805746	902.832907486948	191.962492266801	369.169628150699	1144.440039293214	427.620996817086	575.202125167624	1090.084597813342	314.841798173624	638.741996207228	1154.593341527991	227.608511441906	583.402525965783	1054.612381797538	45.480249085247	556.954088808202	1220.903918477638	113.613308583001	592.664992061054	1140.647896358630	41.645744598278	628.712674606695	1344.050735829618	71.627849035024	613.868195974732	768.304646493860	37.922192847444	410.356048625766	844.454075535395	35.017815112741	331.552626670215	926.959829679587	95.937331083112	360.827593588898	1056.482824241048	43.686495596531	338.007910226966	1038.401517270540	1070.509377837648	154.076280384617	1225.379246509145	887.122074310681	178.702857644583	882.808593979697	1122.349751368367	733.073255104745	933.005432801309	865.179973848968	738.257577325829	
